<?xml version="1.0" encoding="UTF-8"?>
<svg id="_レイヤー_1" data-name="レイヤー_1" xmlns="http://www.w3.org/2000/svg" xmlns:xlink="http://www.w3.org/1999/xlink" version="1.1" viewBox="0 0 600 480">
  <!-- Generator: Adobe Illustrator 30.0.0, SVG Export Plug-In . SVG Version: 2.1.1 Build 123)  -->
  <defs>
    <style>
      .st0 {
        opacity: .2;
      }

      .st0, .st1, .st2, .st3, .st4, .st5, .st6, .st7, .st8, .st9, .st10, .st11, .st12 {
        mix-blend-mode: multiply;
      }

      .st0, .st1, .st2, .st3, .st5, .st6, .st7, .st8, .st13, .st14, .st9, .st10, .st11, .st12 {
        isolation: isolate;
      }

      .st0, .st15 {
        fill: #59b3ae;
      }

      .st16 {
        fill: #61b6ac;
      }

      .st1, .st17 {
        fill: #e0dfef;
      }

      .st2 {
        opacity: .43;
      }

      .st2, .st18 {
        fill: #8eb5c5;
      }

      .st19 {
        fill: #87cbc4;
      }

      .st20 {
        fill: #94d0cb;
      }

      .st21 {
        fill: #2e0a03;
      }

      .st3 {
        opacity: .25;
      }

      .st3, .st22 {
        fill: #21265a;
      }

      .st23 {
        fill: #cf6e53;
      }

      .st4, .st10 {
        opacity: .28;
      }

      .st24 {
        fill: #3e1c44;
      }

      .st25, .st5 {
        fill: #0a6978;
      }

      .st26 {
        fill: #009ac0;
      }

      .st27 {
        fill: #c8c9cb;
      }

      .st28 {
        fill: #ed8e27;
      }

      .st5 {
        opacity: .34;
      }

      .st6 {
        opacity: .58;
      }

      .st6, .st7, .st29 {
        fill: #f5b383;
      }

      .st7 {
        opacity: .38;
      }

      .st30 {
        fill: #4d4d4d;
      }

      .st31 {
        fill: #333352;
      }

      .st8 {
        fill: #f19a79;
        opacity: .39;
      }

      .st14 {
        opacity: .42;
      }

      .st14, .st32 {
        fill: #b7dee8;
      }

      .st33 {
        fill: #e63247;
      }

      .st34 {
        fill: #036aaf;
      }

      .st35 {
        fill: #f5c15c;
      }

      .st36 {
        fill: #293948;
      }

      .st37, .st12 {
        fill: #ed772d;
      }

      .st38 {
        fill: #e4eded;
      }

      .st39 {
        fill: #fff;
      }

      .st40 {
        fill: #e95c55;
      }

      .st41 {
        fill: #002d41;
      }

      .st42 {
        fill: #43753e;
      }

      .st43 {
        fill: #51a99c;
      }

      .st44 {
        fill: #106b8e;
      }

      .st45 {
        fill: #b81f22;
      }

      .st46 {
        fill: #ed7e64;
      }

      .st47 {
        fill: #76af68;
      }

      .st48 {
        fill: none;
        stroke: #3e1c44;
        stroke-miterlimit: 10;
        stroke-width: .92px;
      }

      .st49 {
        opacity: .19;
      }

      .st9 {
        opacity: .17;
      }

      .st9, .st10, .st50 {
        fill: #246d91;
      }

      .st51 {
        fill: #c6e4e3;
      }

      .st52 {
        fill: #7dc0be;
      }

      .st53 {
        fill: #055d86;
      }

      .st54 {
        fill: #ecf2f2;
      }

      .st11 {
        opacity: .37;
      }

      .st11, .st55 {
        fill: #f39c38;
      }

      .st56 {
        fill: #9e5a4d;
      }

      .st12 {
        opacity: .41;
      }

      .st57 {
        fill: #f09379;
      }

      .st58 {
        fill: #dbe7f1;
      }

      .st59 {
        fill: #323333;
      }

      .st60 {
        fill: #87bd7c;
      }

      .st61 {
        fill: #1a1a2c;
      }

      .st62 {
        fill: #4f070c;
      }

      .st63 {
        fill: url(#_名称未設定グラデーション);
      }

      .st64 {
        fill: #a63b23;
      }

      .st65 {
        fill: #3b6087;
      }

      .st66 {
        fill: #b2b2b2;
      }
    </style>
    <linearGradient id="_名称未設定グラデーション" data-name="名称未設定グラデーション" x1="94.13" y1="77.95" x2="94.13" y2="165.85" gradientTransform="translate(0 .11)" gradientUnits="userSpaceOnUse">
      <stop offset="0" stop-color="#93d0c5"/>
      <stop offset=".5" stop-color="#3c95c1"/>
      <stop offset="1" stop-color="#25669d"/>
    </linearGradient>
  </defs>
  <rect class="st39" y="1" width="600" height="480"/>
  <g class="st13">
    <g id="_レイヤー_11" data-name="_レイヤー_1">
      <g>
        <path class="st58" d="M111.78,380.46c-.63-.43-2.34-1.3-3.34-1.13-2.44.42-4.87,1.04-7.28,1.89,3.33-1.18,7.17-.65,10.62-.76Z"/>
        <path class="st58" d="M227.71,354.94c-2.07-10.05-8.85-19.02-17.95-23.76-12-6.25-19.16-11.57-16.55-26.64,1.15-6.62,3.62-12.99,4.22-19.68,1.5-16.63-9.16-32.57-23.18-41.64-28.44-18.4-73.74-20.36-104.9-8.46-6.33,2.42-12.51,5.71-16.97,10.81-4.46,5.1-6.97,12.26-5.22,18.8,2.58,9.65,12.47,15.09,15.41,24.67.98,3.21.97,6.89-.82,9.73-4.06,6.48-13.62,7.96-19.97,11.08-7.68,3.78-14.7,9.16-19.37,16.42-14.59,22.65,3.35,45.17,26.82,49.24,19.05,3.3,39.04.21,58.31,1.96,15.83,1.43,31.28,4.8,46.62,9.14,16.49,4.66,38.08,12.19,54.9,5.23,14.29-5.91,21.71-22.03,18.64-36.91h.01Z"/>
      </g>
      <path class="st58" d="M577.52,267.5c-3.35-22.26-18.24-40.24-40.55-45.16-26.05-5.75-54.67,4.09-72.82,23.36-7.39,7.85-13.31,17.31-22.27,23.31-10.05,6.73-22.17,9.12-32.94,14.37-9.85,4.8-17.62,13.48-21.86,23.53-3.06,7.26-4.36,15.39-2.83,23.13,4.02,20.38,24.76,33.33,43.12,39.16,12.53,3.98,25.7,5.53,38.8,6.59,24.01,1.94,50.4,1.89,71.66-11.03,21.53-13.08,31.89-36.67,37.36-60.3,2.8-12.08,4.18-24.59,2.32-36.94v-.02Z"/>
      <path class="st58" d="M386.82,243.37c-2.84-2.64-5.94-5-9.29-7.01-11.12-6.69-24.43-9.59-37.28-7.81-20.58,2.85-36.26,17.16-52.03,29.93-17.65,14.29-35.61,23.12-57.9,26.43-5.92.88-12.08,1.51-17.26,4.63-8.8,5.29-12.68,16.74-12.02,27.15,3.78,59.95,72.88,73.97,119.74,65.54,11.43-2.06,22.01-13.51,33.34-10.48,42.57,11.36,55.7-47.71,52.91-85.32-1.21-16.34-8.44-32.13-20.2-43.07h0Z"/>
      <g>
        <path class="st65" d="M112.6,133.64c-.18-.08-.34-.25-.47-.49-.08-.76.04-1.17.05-1.85,0-.23-.06-.42-.17-.58-.17-.23-.36-.25-.58-.06-.34.3-.78.52-1.63.6-1.45.07-2.59-.17-3.99-.34-1.75-.21-3.15-.05-4.6,1.1,1.12-2.27,4.13-4.55,6.75-4.65,1.53-.06,3.13.56,3.68,2.1-1.74-1.09-5.22-.85-7.73.83,2.61-1.64,8.03-1.78,8.59.67.4-.79.2-1.72-.24-2.45l-.5-.89c-.24-.43-.46-.8-.59-1.28-.2-.76-.18-1.63.13-2.63.2-.78.41-1.53.23-2.44.79,1.79.75,3.53.35,4.87-.14.47-.15.78-.04,1.04.34.88,1.02,1.44,1.17,2.68.11-.3.33-.68.49-.9-.37-.47-.55-.99-.53-1.49.08-2.22,2.49-2.83,4.3-3,1.13-.11,2.21-.18,2.98-1.21-.49,1.31-1.93,2.17-3.1,2.9-.82.51-1.63,1.01-2.36,1.7-.77.73-1.37,1.59-1.76,2.76-.32.94-.43,1.94-.43,3.04"/>
        <g>
          <g>
            <path class="st65" d="M95.67,165.58s-2.09-3.86-2.09-9.57,4.13-9.53,6.31-10.78,7.37-4.41,9.33-6.28c1.96-1.88,2.03-2.16,2.3-2.77s.42-2.27,1.69-1.45c1.26.82.88,3.11.75,3.67-.14.56-.93,3.26-3.99,5.68,0,0,3.49-.59,8.08-2.84,4.59-2.24,7.75-5,9.3-7.53,1.55-2.53,1.73-3.7,1.87-4.19s.37-2.43.37-2.91-.2-1.39.39-1.43.86.15,1.01.57.68,2.62.61,4.76c-.07,2.13-.86,5.44-3.27,8.74s-7,7.57-13.17,11.06c-6.17,3.48-7.94,4.35-9.03,4.95-1.09.6-8.68,3.56-10.44,10.31h-.02Z"/>
            <path class="st65" d="M122.05,138.64s4.43-3.67,5.79-6.83c0,0,.1-1.21-.14-2.27-.23-1.06-.92-2.28-1.24-2.62-.31-.34-.54-.29-.72-.25s-.63.25-.42.99c.2.74.35,2.14.12,3.38-.22,1.23-.51,2.24-1.02,3.37-.5,1.13-1.63,3.37-2.38,4.24h0Z"/>
            <path class="st65" d="M121.58,138.35s2.68-3.69,3.25-7.03c0,0-.36-.97-.86-1.57s-.57-.67-.93-.67-.7.42-.56.9.39,1.24.43,1.87c.03.63.06,1.24-.04,2.16s-.81,3.51-1.28,4.35h-.01Z"/>
          </g>
          <path class="st63" d="M130.54,121.77s1.44-5.14,1.5-11.29c.05-6.15-1.17-9.98-2.88-13.46-1.71-3.48-5.71-7.1-9.98-8.16s-7.4-1.01-11.97.57-11.01,7.17-15.38,17.24c0,0-10.16-7.59-20.81-4.45s-11.79,14.12-11.63,16.93.16,8.02,3.15,14.44,3.9,8.2,8.27,14.12,11.5,12.93,17.99,17.42c0,0-15.6-5.53-27.02-18.81-11.42-13.27-12.02-27.09-12.08-29.7-.05-2.61.42-7.51,2.22-11.38,0,0,2.43-4.75,5.22-7.12s5.62-3.96,8.31-4.94c2.69-.98,6.53-1.69,9.68-1.66s7.83.65,12.62,3.59c0,0,2.88-5.52,6.83-9.19,3.94-3.67,7.86-5.55,10.09-6.39,2.23-.84,8.13-2.77,14.58-1.82,6.45.95,11.53,3.97,14.41,7.18s4.49,7.62,4.81,11.48c.33,3.86-.16,7.37-1.58,11.78-1.41,4.41-2.64,7.86-6.36,13.63h0Z"/>
        </g>
        <g>
          <path class="st36" d="M54.81,172.84c2.39,0,4.16.43,5.29,1.3,1.14.87,1.71,2.19,1.71,3.95,0,.8-.15,1.5-.46,2.1-.3.6-.7,1.1-1.2,1.52s-1.04.76-1.61,1.02l5.16,7.64h-4.12l-4.17-6.73h-1.99v6.73h-3.71v-17.54h5.1ZM54.54,175.89h-1.13v4.74h1.2c1.23,0,2.11-.2,2.64-.61s.8-1.02.8-1.82-.29-1.43-.86-1.78-1.45-.53-2.65-.53Z"/>
          <path class="st36" d="M71.14,176.73c1.85,0,3.31.53,4.39,1.58,1.08,1.06,1.62,2.56,1.62,4.5v1.77h-8.64c.03,1.03.34,1.84.92,2.43s1.39.88,2.42.88c.85,0,1.63-.08,2.34-.25s1.45-.44,2.2-.8v2.82c-.67.33-1.37.57-2.09.72-.72.16-1.6.23-2.63.23-1.34,0-2.53-.25-3.56-.75s-1.84-1.25-2.43-2.26c-.59-1.01-.88-2.29-.88-3.84s.27-2.86.79-3.91c.53-1.05,1.27-1.83,2.22-2.36.95-.52,2.06-.78,3.32-.78v.02ZM71.17,179.33c-.72,0-1.31.23-1.77.69s-.73,1.17-.81,2.13h5.13c-.01-.8-.23-1.47-.65-2.01s-1.05-.81-1.9-.81h0Z"/>
          <path class="st36" d="M87.74,176.73c1.44,0,2.59.39,3.46,1.17s1.3,2.02,1.3,3.74v8.74h-3.66v-7.84c0-.97-.17-1.69-.52-2.17-.34-.48-.89-.73-1.64-.73-1.11,0-1.88.38-2.29,1.14s-.61,1.86-.61,3.28v6.31h-3.66v-13.41h2.8l.49,1.72h.19c.43-.69,1.01-1.19,1.76-1.5s1.54-.47,2.37-.47v.02Z"/>
          <path class="st36" d="M99.91,171.72v8.35c0,.51-.02,1.01-.06,1.51s-.08,1-.13,1.51h.05c.25-.34.5-.69.76-1.03s.54-.68.84-1.01l3.76-4.08h4.13l-5.33,5.82,5.65,7.59h-4.22l-3.86-5.43-1.57,1.25v4.17h-3.66v-18.66h3.66-.02Z"/>
          <path class="st36" d="M116.98,176.7c1.8,0,3.18.39,4.14,1.17s1.44,1.97,1.44,3.57v8.94h-2.55l-.71-1.82h-.1c-.57.72-1.18,1.25-1.82,1.57s-1.51.49-2.62.49c-1.19,0-2.19-.34-2.97-1.03-.79-.69-1.18-1.76-1.18-3.22s.5-2.47,1.5-3.14,2.5-1.05,4.49-1.13l2.34-.07v-.59c0-.71-.19-1.22-.56-1.55-.37-.33-.88-.49-1.53-.49s-1.29.1-1.92.29c-.62.19-1.25.42-1.86.7l-1.2-2.48c.7-.36,1.5-.65,2.38-.87.89-.22,1.8-.33,2.75-.33h-.02ZM118.92,184.17l-1.43.05c-1.18.03-2,.24-2.46.64-.46.39-.69.91-.69,1.55,0,.56.16.96.49,1.19.33.24.76.35,1.28.35.79,0,1.45-.23,1.99-.7s.81-1.13.81-1.98v-1.1h.01Z"/>
          <path class="st36" d="M138.61,176.97v13.41h-2.8l-.49-1.72h-.19c-.43.69-1.01,1.19-1.76,1.5s-1.53.46-2.37.46c-1.44,0-2.6-.39-3.46-1.16-.87-.78-1.3-2.03-1.3-3.75v-8.74h3.66v7.84c0,.97.17,1.69.51,2.18.34.48.89.72,1.65.72,1.11,0,1.88-.38,2.29-1.14.41-.76.61-1.86.61-3.28v-6.31h3.66,0Z"/>
        </g>
      </g>
      <g>
        <g>
          <path class="st26" d="M293.76,112.76h-2.95v10.21c0,1.21-.74,3.26-3.1,3.79-9,1.16-17.26,1-24.73.16-2.37-.68-3.47-2.05-3.16-4.74l1.21-9.42h-2.74c-1.89,0-3.47-1.58-3.47-3.47s1.58-3.47,3.47-3.47h3.58l1.21-10.21c.16-1.26,1.37-3,3.74-3.1h20.21c2.53.1,3.79,2.05,3.79,3.42v9.89h2.95c1.95,0,3.53,1.53,3.53,3.47s-1.58,3.47-3.53,3.47h0ZM268.19,82.76h22.95c1.89,0,3.47,1.58,3.47,3.47s-1.58,3.47-3.47,3.47h-26.42l-1.95,3.84c-.89,1.68-3,2.37-4.68,1.53-1.74-.89-2.42-3-1.53-4.68l5.21-10.26c.89-1.74,3-2.42,4.68-1.53,1.58.79,2.26,2.58,1.74,4.16h0ZM272.61,112.76h-4.58l-.89,7.42c1.68.1,3.37.21,5.42.21l.05-7.63ZM272.61,105.82v-6.32h-3l-.74,6.32h3.74ZM283.82,112.76h-4.26l-.05,7.58c1.63-.05,2.74-.1,4.32-.21v-7.37h-.01ZM283.82,99.5h-4.21v6.32h4.21v-6.32Z"/>
          <path class="st26" d="M310.6,97.87v-12.84c0-1.95,1.53-3.47,3.47-3.47h19.53c2.21.11,3.26,1.84,3.26,3.47v38.68c0,1.58-.84,4.16-3.53,4.16h-4.68c-1.95,0-3.47-1.53-3.47-3.47s1.53-3.58,3.47-3.58h1.26v-9.95h-13.47c-1.16,5.26-2.37,8.1-4.37,14.42-.58,1.68-2.53,2.74-4.32,2.32-1.84-.47-2.95-2.37-2.47-4.26,1.21-4.89,3.42-9.1,4.53-15,.74-4.63.68-7,.79-10.47h0ZM317.45,103.92h12.47v-4.47h-12.42c.05,1.63.05,3-.05,4.47ZM317.55,88.5v3.95h12.37v-3.95h-12.37Z"/>
          <path class="st26" d="M387.28,110.66c-5.84,8.68-11.42,11.74-16.47,12.89-2.74.58-4.42.79-8.1.84-2.26-.1-3.26-1.68-3.26-3.58v-32.84c0-1.95,1.58-3.47,3.47-3.47s3.53,1.53,3.53,3.47v29.37c1.42,0,1.79-.11,2.84-.37,3.53-.84,8.05-4.16,12.79-10.95,1.11-1.58,3.47-1.84,4.95-.58,1.42,1.26,1.32,3.63.26,5.21h-.01Z"/>
          <path class="st26" d="M404.55,94.71c-1.68-.95-2.26-3.05-1.32-4.74s3.05-2.26,4.74-1.32l6.1,3.37c1.63.95,2.26,3.1,1.32,4.74-.95,1.68-3.11,2.26-4.74,1.37,0,0-6.1-3.42-6.1-3.42ZM436.28,95.13c-1.63,6.79-4.68,12.68-8.32,17.26-4,5.16-10.47,9.37-19.05,11.1-1.84.37-3.95-.79-4.37-2.68-.42-2.1,1.11-3.68,2.84-4.1,7.63-1.84,12.16-4.74,15.1-8.47,3.37-4.32,5.53-8.84,7.32-15.26.47-1.84,2.53-2.89,4.32-2.32,1.84.58,2.68,2.47,2.16,4.47h0Z"/>
          <path class="st26" d="M465.12,85.61l-.58.89h10.68c2.1,0,3.53,1.63,3.53,3.58-.05,3.79.05,8.31,0,10.16-.16,2.84-.84,5.16-2.26,7.31-4.05,6-9.58,12.63-15.74,18.52-1.37,1.32-3.84,1.37-5.16-.05-1.32-1.37-1.1-3.53.16-4.95,8.47-9.05,15.95-16.79,16.05-20.63,0-2.05-.05-4.53-.05-7h-12.1l-4.95,7c-1.1,1.58-3.32,1.89-4.84.79-1.58-1.11-1.95-3.32-.79-4.84l10.42-14.84c1.11-1.58,3.42-2.05,5-.95,1.58,1.11,1.79,3.42.63,5h0ZM460.81,105.87c-1.95,0-3.53-1.58-3.53-3.53s1.58-3.47,3.53-3.47h4.95c1.95,0,3.47,1.58,3.47,3.47s-1.53,3.53-3.47,3.53h-4.95Z"/>
          <path class="st26" d="M493.49,122.92c-1.63-1.1-1.79-3.21-.79-4.89,3.84-6.32,5.05-8.05,7.26-13.16.58-1.32.74-2.42.74-4.74,0-3.79.05-5.21-.05-9.63,0-1.95,1.53-3.53,3.42-3.53,1.95-.05,3.53,1.53,3.53,3.42,0,5.47.05,9.68-.05,12.21-.16,3.1-3.11,10.21-9,19.26-1.05,1.63-3.47,2.1-5.05,1.05h-.01ZM533.85,108.45c1.37,1.32,1.42,3.26.05,5.05-3.26,4.21-5.95,6.58-9.37,8.58-1.68,1-5.26,2.47-9,2.58-1.95.05-3.47-1.26-3.47-3.63v-33.26c0-1.95,1.58-3.53,3.47-3.53s3.47,1.58,3.47,3.53v29.42c1.05-.21,1.74-.47,2.32-.84,2.95-1.79,4.42-3.37,7.68-7.37,1.21-1.47,3.42-1.84,4.84-.53h.01Z"/>
        </g>
        <g>
          <path class="st26" d="M289.07,176.63c-.79-6.37,2.05-12.16,8.89-15,0-2.53.16-4.68.32-7h-2.63c-1.89,0-3.47-1.58-3.47-3.47s1.58-3.53,3.47-3.53h3.42c.11-.95.26-2.32.37-3.26.21-1.9,2-3.26,3.89-2.95,1.9.26,3.21,1.74,3,3.89-.11,1-.21,1.68-.26,2.32h7.37c1.9,0,3.47,1.58,3.47,3.53s-1.58,3.47-3.47,3.47h-8.21c-.32,2.1-.42,3.53-.47,5.47.89-.1,2.05-.16,3-.16,1.53,0,2.53,0,3.95.32.11-.26.16-.32.26-.58.74-1.79,2.47-2.79,4.32-2.21,1.79.58,2.95,2.63,2.21,4.47-.11.21-.16.42-.26.63,5,2.84,6,6.95,6,10.53,0,6.95-4.79,12.42-8.58,15.53-1.53,1.21-4.42,1.21-5.53-.58-1.16-1.79-.16-3.79,1.21-5.05,3.74-3.37,6-5.95,6.26-9.05.26-3.05-1.05-4.68-2.21-5.21-4,8.32-10.26,17.1-16.58,17.52-5,.37-9.05-3.84-9.74-9.63h0ZM295.39,175.63c.32,2.63,1.68,3.95,2.79,3.95,2.84-.05,7.63-6.1,10.63-13-1.21-.32-2.79-.26-3.95,0,.05,1.42.05,3.37.16,4.79.16,1.95-1.37,3.58-3.26,3.74-1.95.16-3.58-1.32-3.68-3.21-.05-.84-.1-1.63-.1-2.84-1.89,1.26-2.95,3.58-2.58,6.58h-.01Z"/>
          <path class="st26" d="M339.28,173.79c-1.89-.32-3.21-2.05-2.95-4l1.95-12.31h-1.42c-1.95,0-3.53-1.53-3.47-3.47,0-1.95,1.53-3.47,3.47-3.47h2.42l.47-3.74c.32-1.95,2.05-3.26,3.95-2.95,1.95.26,3.26,2.05,2.95,3.95l-.42,2.79h3.53c1.89,0,3.47,1.58,3.47,3.47s-1.58,3.47-3.53,3.47h-4.47l-2,13.31c-.26,1.89-2.05,3.21-3.95,2.95h0ZM372.91,176.21c-.26,1.89-1.68,3.37-3.89,3.05-1.05-.16-3.47-.79-4.53-.89,0,.84-.05,3.42-.05,3.42-.11,4.42-2.68,7.47-7.37,7.47-5.1-.05-9.95-5.95-9.68-11.26.21-3.58,2.53-6.95,8.37-7.05.53,0,1.16.05,1.74.05v-6.74c0-1.95,1.58-3.47,3.47-3.47s3.53,1.53,3.53,3.47v7.16c1.32.16,3.68.58,5.42.89,2.11.42,3.26,2.16,3,3.89h-.01ZM357.49,177.89c-.63-.1-1.05-.1-1.58-.1-.84.05-1.47.26-1.58.95-.21,1.89,1.53,3.53,2.58,3.53.26,0,.58-.21.58-.89.05-.9,0-2.42,0-3.47v-.02ZM359.59,151.52l7.84-.05c1.95,0,3.53,1.58,3.53,3.47s-1.58,3.53-3.47,3.53h-7.89c-1.89,0-3.47-1.53-3.47-3.47s1.53-3.47,3.47-3.47h0Z"/>
          <path class="st26" d="M383.12,183.73l5.74-25.89h-2.53c-1.95,0-3.47-1.58-3.47-3.47s1.53-3.47,3.47-3.47h4.05l1.05-4.63c.37-1.89,2.21-3.1,4.1-2.68,1.9.37,3.11,2.26,2.68,4.1l-.68,3.21h5.42c1.95,0,3.53,1.53,3.53,3.47s-1.58,3.47-3.53,3.47h-7l-6,27.31c-.42,1.89-2.26,3.1-4.16,2.68-1.89-.37-3.05-2.21-2.68-4.1h.01ZM410.64,187.63c-6.74-.63-9.95-3.79-9.21-10.84.16-1.95,1.68-3.16,3.63-3.1,1.42.05,3.32,1.16,3.16,3-.32,2.84.26,3.84,3.05,4.05,1.68.16,3.05.05,4.68-.16,2-.21,3.84.79,3.95,3,.11,2.37-1.74,3.74-3.21,3.89-1.95.26-3.74.37-6.05.16h0ZM419.38,162.31c-.05.68-.26,1.32-.63,2.16l-3.79,5.79c-.95,1.68-3.1,2.26-4.74,1.32-1.79-1.05-1.89-3.05-1-4.53l1.05-1.26h-4.74c-1.95,0-3.47-1.58-3.47-3.53s1.58-3.42,3.47-3.42h10.31c1.95,0,3.53,1.53,3.53,3.47h.01Z"/>
          <path class="st26" d="M456.63,169.24c.09-5.21-3.79-9.14-9.8-9.05-7.58.14-11.51,5.02-11.6,10.37-.05,3.08.9,5.35,2.37,5.49,1.61.09,3.69-3.74,5.12-10.61.33-1.71,1.66-2.84,3.36-2.65,1.8.24,3.17,1.8,2.79,3.5-1.09,5.49-4.21,16.44-11.41,16.48-4.12,0-8.29-4.83-8.15-12.36.19-9.05,7.72-15.82,17.43-16.01,10.51-.14,16.06,7.67,16.06,14.92,0,6.2-2.94,12.65-10.14,18.47-1.33,1.09-3.69.9-4.78-.43-.9-1.09-.81-3.03.71-4.4,5.35-4.74,8-8.15,8.05-13.74v.02Z"/>
          <path class="st26" d="M478.61,162c.16-1.16.26-2.42.42-3.68h-2.05c-1.89,0-3.47-1.58-3.47-3.47s1.58-3.47,3.47-3.47h2.84c.21-2.05.42-4.1.63-6.26.21-1.89,1.89-3.32,3.84-3.16,1.89.21,3.32,1.89,3.1,3.84-.21,1.89-.37,3.74-.58,5.58h3.89c1.89,0,3.47,1.53,3.47,3.47s-1.58,3.47-3.47,3.47h-4.68c-.11,1.26-.26,2.47-.42,3.68h4.74c1.95,0,3.47,1.58,3.47,3.47s-1.53,3.47-3.47,3.47h-5.63l-.84,7.47c-.68,5.68,3.68,6.21,5.89,6.1,3.53-.21,4.05-3.89,3-7.37-.74-2.47.37-4.05,2.21-4.53,2.21-.47,4,1.05,4.47,3.1,1.05,4.53.58,8.89-1.68,11.89-1.74,2.32-4.37,3.63-7.58,3.84-7.74.42-14.31-4.84-13.26-13.84l.84-6.68h-1.42c-1.95,0-3.47-1.53-3.47-3.47s1.53-3.47,3.47-3.47h2.26v.02Z"/>
          <path class="st26" d="M544.5,165.31c.11-5.79-4.21-10.16-10.89-10.05-8.42.16-12.79,5.58-12.89,11.53-.05,3.42,1,5.95,2.63,6.1,1.79.11,4.1-4.16,5.68-11.79.37-1.89,1.84-3.16,3.74-2.95,2,.26,3.53,2,3.11,3.89-1.21,6.1-4.68,18.26-12.68,18.31-4.58,0-9.21-5.37-9.05-13.74.21-10.05,8.58-17.58,19.37-17.79,11.68-.16,17.84,8.53,17.84,16.58,0,6.89-3.26,14.05-11.26,20.52-1.47,1.21-4.1,1-5.32-.47-1-1.21-.89-3.37.79-4.89,5.95-5.26,8.89-9.05,8.95-15.26h-.02Z"/>
        </g>
        <g>
          <g>
            <circle class="st26" cx="219.83" cy="177.17" r="45.16" transform="translate(9.73 365.78) rotate(-80.78)"/>
            <path class="st39" d="M209.61,146.91c1.92,0,3.89.8,5.28,2.19l2.51,2.51c1.39,1.39,2.13,3.2,2.13,5.17v4c0,3.09-.96,4.64-3.25,6.24l-15.31,10.56c-.43.32-.69.75-.69,1.28h14.19c1.92,0,3.47,1.55,3.47,3.47s-1.55,3.47-3.47,3.47h-15.79c-2.93,0-5.33-1.33-5.33-4.27v-4.05c0-2.24.91-3.68,2.51-4.75l14.72-10.08c.8-.59,2.03-1.55,2.03-3.2v-1.71c0-.69-.32-1.39-.8-1.92l-1.12-1.12c-.53-.53-1.23-.8-1.97-.8h-4.75c-.75,0-1.44.27-1.92.8l-1.12,1.12c-.53.53-.8,1.23-.8,1.92v2.13c0,1.92-1.6,3.47-3.52,3.47s-3.47-1.55-3.47-3.47v-3.09c0-1.97.8-3.79,2.13-5.17l2.56-2.51c1.33-1.39,3.25-2.19,5.17-2.19h6.61Z"/>
            <path class="st39" d="M232.57,170.46v1.05h3.27v-4.04h-6.64c-1.27-.04-2.32-1.05-2.29-2.36,0-1.27,1.02-2.32,2.32-2.32l6.61.04v-2.43h-6.4l-1.09,1.65c-.67,1.09-2.11,1.41-3.2.7s-1.41-2.11-.7-3.2l4.11-6.33c.7-1.09,2.14-1.41,3.23-.7,1.09.67,1.37,2.11.7,3.2l-.04.04h14.2c1.3,0,2.36,1.05,2.36,2.32s-1.05,2.32-2.36,2.32h-5.84v2.46h4.43c1.27,0,2.32,1.05,2.32,2.36-.04,1.27-1.05,2.29-2.36,2.29h-4.39v4.01h7.14c1.27,0,2.32,1.05,2.32,2.32s-1.05,2.32-2.32,2.32h-7.14v6.96c0,1.37-1.12,2.5-2.5,2.5s-2.5-1.12-2.5-2.5v-6.96l-10.34.04c-1.3,0-2.32-1.05-2.32-2.36s1.02-2.32,2.32-2.32h2.39v-1.05c0-1.27,1.05-2.32,2.32-2.32s2.36,1.05,2.36,2.32h.03Z"/>
            <path class="st39" d="M208.96,194.68c-.03-1.19.9-2.15,2.06-2.18l16.86-.71c.9,0,2.15.55,2.18,2.06.03,1.19-.87,2.18-2.06,2.22l-2.15.1c-3.21,2.51-7.39,7.45-7.55,10.12-.1,1.57,1.22,3.05,5.08,3.37,1.16.1,2.02.77,2.09,1.96.03,1.16-1.09,2.38-2.25,2.38-5.72,0-9.54-3.57-8.9-7.93.45-3.05,3.31-6.91,5.94-9.73l-9.12.42c-1.19.03-2.15-.9-2.18-2.06v-.02ZM228.81,198.69v1.77c0,.9-.71,1.61-1.61,1.61s-1.57-.71-1.57-1.61v-1.77c0-.87.71-1.61,1.57-1.61s1.61.74,1.61,1.61ZM232.86,198.69v1.77c0,.9-.71,1.61-1.61,1.61s-1.57-.71-1.57-1.61v-1.77c0-.87.71-1.61,1.57-1.61s1.61.74,1.61,1.61Z"/>
          </g>
          <polygon class="st26" points="258.33 169.77 276.13 176.14 258.58 186.15 258.33 169.77"/>
        </g>
      </g>
      <g>
        <g>
          <rect class="st51" x="319.71" y="364.55" width="59.13" height="4.57"/>
          <g>
            <rect class="st51" x="323.2" y="244.17" width="52.7" height="120.38"/>
            <rect class="st54" x="324.85" y="245.83" width="49.39" height="117.07"/>
            <rect class="st51" x="323.2" y="281.68" width="52.7" height="2.32"/>
            <polygon class="st51" points="331.36 268.26 327.27 268.26 327.27 279.81 329.44 279.81 331.36 268.26"/>
            <polygon class="st51" points="331.62 290.71 327.27 290.71 327.27 308.53 329.44 308.53 331.62 290.71"/>
          </g>
          <g>
            <polygon class="st51" points="333.82 369.13 329.29 369.13 325.68 381.75 328.05 381.75 333.82 369.13"/>
            <polygon class="st51" points="364.71 369.13 369.24 369.13 372.86 381.75 370.48 381.75 364.71 369.13"/>
          </g>
        </g>
        <path class="st29" d="M293.57,293.78l-1.93,2.57s-2.89,1.09-4.99.77c-3.34-.51-3.49-3.7-1.89-4.7,3.91-1.63,7.73.69,7.73.69l1.07.66h0Z"/>
        <path class="st29" d="M308.57,288.69l-17.57,3.81.64,3.85s10.58-1.05,17.16-1.61c.5-.13,3.46-1.83,4.3-2.42-.75-2.88-1.57-4.09-3.33-6.43-.72.9-1.2,2.79-1.2,2.79h0Z"/>
        <g>
          <path class="st42" d="M384.59,369.44s0-7.11,1.85-11.62,2.94-3.53,3.11-5.28c.16-1.74,1.47-3.27,2.56-3.38,1.09-.11,1.74-2.94,2.51-1.31.76,1.63.54,3.27-.76,4.8-1.31,1.53.44,3.36-1.85,5.17-2.29,1.81-2.18,5.95-6.1,11.62-.76.22-1.31,0-1.31,0h0Z"/>
          <path class="st42" d="M380.66,370.19s-3.22-6.41-4.65-9.95-.32-5.19-1.32-6.74c-.99-1.55-1.11-4.68-.66-6.15.44-1.47,2.11-3.46,2.82-.92.71,2.54,3.15,3.87,3.03,8.62-.11,4.75,2.1,9.41,2.21,14.49-.66.54-1.44.65-1.44.65h.01Z"/>
          <path class="st47" d="M383.04,370.19s-1.88-6.53-.94-12.49c.76-4.44,1.31-6.31,1.52-8,.22-1.69,3.1-2.77,1.82,1.78-1.51,5.33,1.15,6.5.33,11.37s-1.97,7.34-1.97,7.34h-.76,0Z"/>
          <path class="st60" d="M381.83,371.03s-2.83-4.43-1.81-10.14c.94-5.54.34-9.97,1.45-9.71,1.11.26,1.96,4.52,1.7,8.95.6,5.54.09,10.99-.26,10.91-.34-.09-1.09,0-1.09,0h0Z"/>
          <path class="st25" d="M388.49,382.63h-10.36c-3.16-6.41-3.02-15.92-3.02-15.92h16.39s.13,9.52-3.02,15.92h0Z"/>
          <polygon class="st47" points="375.12 366.7 375.12 366.7 375.12 366.7 375.12 366.7"/>
          <rect class="st52" x="375.12" y="366.7" width="16.39" height="1.23"/>
          <path class="st5" d="M382.45,379.74c-4.48-3.39-7.6-8.52-5.67-13.03h-1.65s-.14,9.52,3.02,15.92h10.36s.01-.02.02-.04c-2.28-.66-4.36-1.59-6.06-2.86h-.02Z"/>
        </g>
        <path class="st19" d="M289.71,253.16"/>
        <g>
          <rect class="st15" x="233.3" y="300.96" width="62.82" height="85.41"/>
          <path class="st0" d="M237.8,300.96h-4.5v85.41h45.99c-7.04-3.14-46.47-20.04-41.49-85.41Z"/>
          <rect class="st19" x="230.11" y="299.03" width="66.01" height="3.86"/>
          <rect class="st19" x="230.11" y="382.51" width="66.01" height="3.86"/>
        </g>
        <path class="st22" d="M244.23,290.73c-.24-1.76-1.91-2.89-1.91-2.89v-6.55h-2.04v6.55s-1.67,1.13-1.91,2.89,0,8.3,0,8.3h5.85s.24-6.54,0-8.3h0Z"/>
        <g>
          <polygon class="st15" points="248.54 293 248.01 293 246.31 293 246.59 299.03 248.01 299.03 248.54 299.03 249.96 299.03 250.24 293 248.54 293"/>
          <rect class="st22" x="246.09" y="292.41" width="4.4" height=".59"/>
        </g>
        <g>
          <rect class="st15" x="245.86" y="258.52" width="32.92" height="1.14"/>
          <rect class="st15" x="245.45" y="256.71" width="1.03" height="4.77"/>
          <rect class="st15" x="278.26" y="256.71" width="1.03" height="4.77"/>
        </g>
        <g>
          <path class="st45" d="M255.25,291.93s.51,2.24,1.6,4.49c.93,1.39,1.9,1.52,1.9,1.52h20.35s.97-.13,1.9-1.52c1.08-2.25,1.6-4.49,1.6-4.49h-27.35Z"/>
          <path class="st45" d="M278.85,293.04h17.82s1.12.97,0,2.07h-17.82v-2.38"/>
        </g>
        <path class="st29" d="M291.27,295.32l-1.5,1.58s-3.74.74-5.15-.68c-1.42-1.42,1.01-3.06,2.84-2.95s3.81,2.06,3.81,2.06h0Z"/>
        <rect class="st15" x="260.64" y="297.94" width="16.05" height="1.09"/>
        <g>
          <path class="st23" d="M253.66,258.68c-.14-1.05-1.08-1.01-1.08-1.01,0,0-.94-.04-1.08,1.01-.12.89.46,9.3.64,11.87.04.46.06.74.06.74h.77s.02-.27.06-.74c.17-2.57.75-10.98.64-11.87h0ZM252.56,258.74c.19,0,.34.16.34.35s-.15.34-.34.34-.35-.15-.35-.34.16-.35.35-.35Z"/>
          <path class="st64" d="M254.65,273.84c0,1.86-.92,3.37-2.07,3.37s-2.07-1.51-2.07-3.37.92-3.37,2.07-3.37,2.07,1.51,2.07,3.37Z"/>
        </g>
        <g>
          <path class="st22" d="M296.96,304.68c.78.72,1.48.09,1.48.09,0,0,.75-.56.19-1.46-.47-.76-6.25-6.9-8.01-8.78-.33-.33-.51-.53-.51-.53l-.6.49s.16.22.42.61c1.49,2.1,6.37,8.97,7.02,9.58h.01ZM297.77,303.93c-.15.12-.36.09-.48-.05-.12-.15-.1-.36.05-.48.15-.12.36-.1.48.04.12.15.1.37-.05.49Z"/>
          <path class="st22" d="M286.59,293.57c-1.18-1.44-1.42-3.19-.54-3.92s2.55-.14,3.73,1.3c1.18,1.44,1.42,3.19.54,3.92-.88.72-2.55.14-3.73-1.3Z"/>
        </g>
        <g>
          <path class="st23" d="M262.32,257.71h-.55c-.27.08-.55.28-.55.75v6.88h1.64v-6.88c0-.47-.27-.67-.55-.75h0ZM262.05,259.36c-.17,0-.31-.13-.31-.31s.14-.31.31-.31.31.14.31.31-.14.31-.31.31Z"/>
          <rect class="st23" x="261.8" y="264.9" width=".5" height="6.02"/>
          <path class="st64" d="M264.4,276.22l-.49-4.59c-.13-.94-.84-.91-.84-.91h-2.05s-.71-.03-.84.91l-.49,4.59s-.26,1,.65.98h3.41c.91.01.65-.98.65-.98h0Z"/>
        </g>
        <g>
          <path class="st23" d="M270.51,258.01h-.55c-.27.08-.55.28-.55.75v6.89h1.65v-6.89c0-.46-.28-.66-.55-.75h0ZM270.23,259.36c-.17,0-.31-.14-.31-.31s.14-.31.31-.31.31.14.31.31-.13.31-.31.31Z"/>
          <rect class="st23" x="269.98" y="265.21" width=".5" height="6.02"/>
          <circle class="st64" cx="270.23" cy="273.87" r="2.84"/>
        </g>
        <g>
          <g>
            <path class="st29" d="M314.33,292.29l-7.48,4.54s3.89,34.91,5.66,42.31c.62,3.8,4.71,6.52,10.65,10.94,6.32,4.7,22.36,16.24,22.36,16.24l2.38-4.35s-10.63-12.33-15.93-17.42c-5.3-5.09-7.41-5.39-7.41-5.39,0,0,1.65-18.52-.76-32.35-2.4-13.83-9.49-14.52-9.49-14.52h.02Z"/>
            <path class="st7" d="M324.57,339.17s1.65-18.52-.76-32.35c-2.4-13.83-9.49-14.52-9.49-14.52l-7.48,4.54s3.89,34.91,5.66,42.31c.62,3.8,4.71,6.52,10.65,10.94.22.16.45.33.69.51,1.11-3.47,1.96-7.02,2.18-10.78-1.01-.57-1.46-.64-1.46-.64h.01Z"/>
            <path class="st29" d="M344.77,362.44c-.07.12.05,2.42.05,2.42,0,0-.9,4.06-1.36,6.73-.46,2.68.04,8.01,2.87,3.6,2.82-4.41,5.44-9.5,5.44-9.5,0,0,1.26-1.02-.26-2.06-1.25-.86-4.16-2.25-4.16-2.25l-2.58,1.06h0Z"/>
          </g>
          <path class="st29" d="M344.77,362.44c-.07.12.05,2.42.05,2.42,0,0-.9,4.06-1.36,6.73-.46,2.68.04,8.01,2.87,3.6,2.82-4.41,5.44-9.5,5.44-9.5,0,0,1.26-1.02-.26-2.06-1.25-.86-4.16-2.25-4.16-2.25l-2.58,1.06h0Z"/>
          <path class="st29" d="M309.36,292.62l-3.34,3.27,3.54,10.44s2.22,25.27,3.17,32.15c0,0,.86,12.89.75,18.67s.13,18.88.13,18.88l4.3.73s4.36-14.96,5.14-24.55c.63-7.03.21-14.76.21-14.76,0,0,3.71-22.59,3.52-30.88-.2-8.29-10.9-15.15-10.9-15.15l-6.51,1.2h-.01Z"/>
          <path class="st29" d="M315.12,374.65c-.14,0-2.05,1.28-2.05,1.28,0,0-3.95,1.3-6.48,2.27-2.54.97-6.86,4.12-1.63,4.3,5.23.18,10.95-.17,10.95-.17,0,0,2.13.49,2.36-1.01.23-1.5-.34-4.56-.34-4.56l-2.79-2.11h-.02Z"/>
          <path class="st22" d="M313.1,289.73s8.14,3.55,11.99,9.73c3.85,6.18,2.28,14.08,2.28,14.08,0,0,3.4,19.02,2.99,24.12-10.64,3.45-26.91-.7-26.91-.7,0,0,4.11-19.67,3.4-29.09-.71-9.42-.83-14.09-.83-14.09l7.07-4.05h.01Z"/>
          <path class="st3" d="M321.4,296.61c.22-.32.38-.65.52-.97-3.98-3.8-8.82-5.91-8.82-5.91l-7.07,4.05s.12,4.66.83,14.09c.48,6.46-1.29,17.74-2.46,24.19,4.78-8.65,3.89-20.75,6.76-29.93.79-3.15,7.1-2.37,10.25-5.52h0Z"/>
          <path class="st21" d="M289.9,257.55c-1.82-5.4,2.5-11.97,9.72-8.88,4.07,1.95,8.43,8.57,13.5,9.74,5.08,1.17,8.93,6.08,5.11,12.39-16.56,7.69-26.52-7.85-28.33-13.25Z"/>
          <path class="st29" d="M302.7,256.4s4.62,5.7,6.19,7.06c3.61.99,6.4,1.79,8.66,6.8,2.26,5.01,1.84,23.74,1.84,23.74l-12.54,4.63s-5.92-10.9-6.4-18.09c-.47-7.19,2.55-12.49,2.55-12.49l-3.27-5.78,2.96-5.85v-.02Z"/>
          <path class="st37" d="M317.55,270.25c-1.88-4.16-4.12-5.41-6.89-6.28-1.72,3.08-4.68,5.28-7.98,4.69-.76,1.6-2.61,6.12-2.23,11.87.47,7.19,6.4,18.09,6.4,18.09l12.54-4.63s.42-18.73-1.84-23.74h0Z"/>
          <path class="st12" d="M317.8,270.89c-10.39.74-7.44,11.27-6.68,18.88,0,2.22-3.52,2.88-6.43,4.46,1.19,2.61,2.16,4.4,2.16,4.4l12.54-4.63s.39-17.32-1.59-23.1h0Z"/>
          <path class="st6" d="M301.11,257.52l-1.38,4.72,2.36,4.18c2.84-1.47.33-5.77-.98-8.9h0Z"/>
          <path class="st29" d="M313.49,264.68s-3.05-.93-3.91,1.7,4.52,24.28,4.52,24.28c0,0-13.39,6.09-15.9,7.23l1.37,3.54s14.67-4.62,18.1-5.85c1.89-.69,3.29-1.82,2.91-4.63-.81-5.79-2.37-17.42-2.8-19.54s-.95-5.1-4.3-6.75v.02Z"/>
          <path class="st29" d="M290.5,253.42l-1.72,2.98s5.03,14.15,12.38,9.54c4.46-2.99,1.05-11.84,1.05-11.84,0,0-5.6-8.76-11.71-.67h0Z"/>
          <path class="st21" d="M289.49,253.03s2.69,7.43,1.05,7.97c-2.18-2.06-2.59-7.36-1.05-7.97Z"/>
          <path class="st29" d="M299.73,298.62l-1.52-.72s-1.22-.51-3.01-.56c-1.32.07-1.49-.03-1.54.6,0,.4.87.92.87.92,0,0-3.05.48-3.25,2.79s1.43,2.9,3.41,2.66c3.03-.69,5.24-2.98,5.24-2.98l-.19-2.71h0Z"/>
          <path class="st37" d="M312.67,263.97s-6.11-.92-3.09,10.55l1.13,3.72,8.19-1.23s-.19-12.27-6.22-13.03h-.01Z"/>
          <path class="st21" d="M302.5,251.91c-1.01-2.45-9.96-6.67-13.66,1.79,0,0-.44,3.41,2.22,5.52,2.81,2.23,6.77,1.26,8.17-2.21.34-.46.82-.27,1.15-.32.67-.1,1.09,0,1.09,0,0,0,3.8,13.05,12.11,8.14.34-.2,1.3-.11,3.12,2.35-2.01-5.43-14.19-15.27-14.19-15.27h0Z"/>
          <path class="st29" d="M299.88,257.01s.7-1.95,2.1-1.59c1.59.41,2.06,3.85-.13,3.67-.8-.86-1.97-2.07-1.97-2.07h0Z"/>
          <path class="st22" d="M308.62,377.32s1.78,2.09,2.77,4.01c4.24.44,6.92-.46,6.92-.46,0,0,.41,1.23-.45,1.68h-14.16s-1.58-.07-1.5-1.31c.09-1.24,4.3-3.46,6.42-3.93h0Z"/>
          <path class="st22" d="M343.6,369.6s2.7-.5,4.86-.39c2.51-3.45,2.84-5.98,2.84-5.98,0,0,1.5.03,1.46,1l-7.09,12.26s-.85,1.34-1.88.64c-1.03-.69-.84-5.45-.18-7.53h0Z"/>
        </g>
        <rect class="st51" x="342.3" y="248.66" width="13.94" height="2.96"/>
      </g>
      <g>
        <ellipse class="st38" cx="491.82" cy="370.96" rx="81.43" ry="16.9"/>
        <g>
          <g>
            <path class="st32" d="M512.16,287.04v1.41c-.11,22.66-.68,76.08-.68,76.08,0,0,.82,3.1-4.54,3.17h-57.46c-5.38-.07-4.55-3.17-4.55-3.17,0,0-.57-53.41-.68-76.08v-1.41c-.02-4.92-.02-8.1.03-8.53.23-2.3,4.71-1.92,4.71-1.92h58.44s4.49-.37,4.72,1.92c.05.42.05,3.61.03,8.53h-.02Z"/>
            <path class="st50" d="M512.16,287.04v1.41h-67.93v-1.41h67.93Z"/>
            <circle class="st44" cx="478.17" cy="322.37" r="26.7"/>
            <circle class="st20" cx="478.22" cy="322.43" r="19.72"/>
            <circle class="st44" cx="478.27" cy="322.36" r="17.83"/>
            <rect class="st50" x="448.53" y="280.79" width="13" height="3.75"/>
            <g>
              <rect class="st50" x="464.77" y="280.95" width="4" height="1.17"/>
              <rect class="st50" x="464.77" y="283.21" width="4" height="1.17"/>
              <rect class="st50" x="470.24" y="280.95" width="4" height="1.17"/>
              <rect class="st50" x="470.24" y="283.21" width="4" height="1.17"/>
            </g>
          </g>
          <path class="st57" d="M495.95,328.42l-1.25-.86s-1.54-2.35-2.54-2.59c-1-.23.09,1.99.09,1.99,0,0-1-1.35-2.69-.35-1.7,1-3.4,6.7,2.34,6.35,2.81-.32,3.86-1.38,3.86-1.38l.19-3.17h0Z"/>
          <g>
            <g>
              <path class="st20" d="M428.75,351.24s-1.59-8.96,1.7-16.06,9.78-6.96,9.78-6.96c0,0-1.19,10.72-5.3,16.27-4.12,5.55-6.17,6.75-6.17,6.75h-.01Z"/>
              <path class="st20" d="M424.5,350.97s8.87-24.31-4.44-38.64c-6.98,6.98-6.26,28.41,4.44,38.64h0Z"/>
              <path class="st43" d="M421.34,350.97s-2.12-23.72-10.04-29.03c-1.46,3.54-2.81,21.51,10.04,29.03Z"/>
              <path class="st50" d="M428.72,357.69l-.71-.21c.55-1.91.49-3.43.43-5.05-.16-3.96-.34-8.44,7.87-20.18l.61.42c-8.06,11.53-7.89,15.89-7.73,19.73.07,1.68.13,3.26-.46,5.29h0Z"/>
              <path class="st50" d="M423.17,359.92c-.04-.18-4.11-18.08-8.52-29.19l.69-.27c4.44,11.16,8.52,29.12,8.56,29.3l-.72.16h-.01Z"/>
              <path class="st50" d="M424.87,355.92h-.74c0-.28.1-27.7-4.41-38.83l.69-.28c4.56,11.26,4.46,38.83,4.46,39.1h0Z"/>
              <path class="st16" d="M421.34,351.53s-1.54-4.56-6.82-5.28c0,4.1,6.82,5.28,6.82,5.28Z"/>
              <path class="st43" d="M424.15,350.48s-1.15-9.35,5.81-9.69c-1.08,7.15-5.81,9.69-5.81,9.69Z"/>
            </g>
            <g>
              <path class="st50" d="M433.87,353.34s-.96,9.15-3.92,14.72h-8.8c-2.96-5.57-3.92-14.72-3.92-14.72h16.65,0Z"/>
              <path class="st9" d="M418.35,353.34h-1.14s.96,9.15,3.92,14.72h8.8c.39-.73.74-1.52,1.06-2.35-6.71.86-12.8-5.64-12.65-12.37h.01Z"/>
              <rect class="st20" x="416.57" y="353.33" width="18.12" height="1.33"/>
            </g>
          </g>
          <g>
            <g>
              <g>
                <path class="st43" d="M435.06,244.29s-5.41-9.45,1.31-13.95c4.33,2.97,2.9,1.98,2.17,6.26-.73,4.28-2.39,7.12-2.39,7.12l-1.09.58h0Z"/>
                <path class="st20" d="M434.39,244.15s-6.35-7.78-2.53-13.63c3.89.51,1.27,4.22,2.23,7.32.96,3.1.82,5.56.82,5.56l-.53.76h0Z"/>
                <path class="st43" d="M433.71,243.54s-6.01-1.07-5.8-8.66c5.51,1.27,6.41,6.06,6.56,8.66-.44.38-.76,0-.76,0Z"/>
                <path class="st20" d="M435.83,243.54s.02-7.06,4.3-10.49c2.59,2.33,2.82,4.52,1.48,7.21-1.35,2.69-5.01,3.45-5.01,3.45l-.77-.17Z"/>
                <path class="st20" d="M434.87,243.54s-3.92-3.98-2.23-10.55c3.77,1.4,2.23,10.55,2.23,10.55Z"/>
              </g>
              <g>
                <path class="st50" d="M435.06,242.79h-4.27s.58,4.3,1.07,7.66c.25,2.04,1.57,1.65,1.57,1.65h3.26s1.32.39,1.57-1.65c.49-3.36,1.07-7.66,1.07-7.66h-4.27Z"/>
                <path class="st9" d="M431.97,242.79h-1.18s.58,4.3,1.07,7.66c.25,2.04,1.57,1.65,1.57,1.65h3.26s1.07.31,1.47-1.12c-3.92-.47-6.01-2.22-6.19-8.19h0Z"/>
                <rect class="st20" x="430.79" y="242.79" width="8.54" height="1.5"/>
              </g>
            </g>
            <rect class="st32" x="424.22" y="251.93" width="69.17" height="2.26"/>
            <g>
              <g>
                <path class="st18" d="M453.22,226.93h0Z"/>
                <path class="st18" d="M457.13,226.92h0Z"/>
                <path class="st18" d="M460.58,235.04c-1.84-3.97-3.28-6.34-3.28-6.34l-.17-1.78c-.05.07-1.8.05-1.95.05h-.7c-.55,0-1.22,0-1.26-.05l-.17,1.78s-1.44,2.36-3.28,6.34c-1.84,3.97-2.28,12.92.3,15.85,1.26,1.2,2.29,1.03,2.29,1.03h5.63s1.04.17,2.29-1.03c2.58-2.93,2.14-11.87.3-15.85h0ZM459.5,239.49c-.78.76-1.78-1.35-1.78-1.35,0,0-1.04-2.18-1.42-3.9s1.03-2.39,2.15-.93c1.13,1.46,1.93,4.98,1.04,6.18h.01Z"/>
                <path class="st2" d="M452.09,249.3c-3.49-6.4-1.03-12.35-.18-18.56-.57,1.07-1.31,2.52-2.14,4.29-1.84,3.97-2.28,12.92.3,15.85,1.26,1.2,2.29,1.03,2.29,1.03h2.76c-1.2-.58-2.25-1.44-3.04-2.62h.01Z"/>
              </g>
              <path class="st50" d="M457.78,225c-.83-.52-2.44-.51-2.61-.5-.17,0-1.77,0-2.61.5-.23.63.59,1.97.59,1.97h4.03s.82-1.34.59-1.97h0Z"/>
            </g>
            <g>
              <path class="st18" d="M482.52,238.83c.28-3.5-1.24-6.82-3.45-8.62-2.21-1.81-3.43-.52-3.43-.52l-2.04,2.09h-.82v-.49h-3.3s0,.49,0,.49c0,0-1.22,2.86-1.77,7.06-.22.63.35.92.35.92v8.9s-.23.2-.25.47v1.79s.08.88,1.58.99h11.45c1.49-.11,1.58-.99,1.58-.99v-1.79c-.02-.27-.25-.47-.25-.47v-8.9s.31.06.35-.92h0ZM480.03,238.37s-1.33-1.02-2.23-3.89c-.9-2.87.57-3.21,1.45-2.47s1.97,2.92,2.02,5.37c.04,1.95-.8,1.44-1.24.99Z"/>
              <path class="st2" d="M471.32,248.56c-3.92-3.92-.34-10.73-2-16.34-.36.96-1.17,3.38-1.59,6.61-.22.63.35.92.35.92v8.9s-.23.2-.25.47v1.79s.08.88,1.58.99h11.45c1.27-.09,1.52-.73,1.56-.93-4.19,1.11-8.51.61-11.09-2.4h-.01Z"/>
              <path class="st50" d="M471.18,229.54h-.1c-.3.02-1.24.08-1.6.26v1.52h3.3v-1.52c-.36-.18-1.3-.24-1.6-.26Z"/>
            </g>
          </g>
          <path class="st33" d="M482.76,327.67s-8.41-1.25-15.42,2.18c-4.36,2.49-3.74,25.69-3.74,25.69,0,0,13.74,3.86,23.71-2.21,1.56-13.08-4.56-25.67-4.56-25.67h.01Z"/>
          <path class="st55" d="M474.48,328.79l7.69-7.35s3.57-5.96,10.42,5.14c3.92,6.36,4.75,26.97,4.75,30.24-5.68,4.27-12.45,2.39-12.45,2.39,0,0,.13-15.89-2.86-23.16-2.44-5.93-8.2-2.91-7.55-7.26h0Z"/>
          <g>
            <ellipse class="st50" cx="465.68" cy="322.39" rx="14.19" ry="26.7"/>
            <path class="st14" d="M474.82,322.39c0,1.6-.08,3.15-.25,4.65-.49,4.66-1.72,8.74-3.44,11.69-.71,1.24-1.5,2.28-2.36,3.07-1.08,1.01-2.26,1.64-3.5,1.8-.22.04-.45.05-.67.05-5.64,0-10.22-9.52-10.22-21.27,0-1.85.12-3.63.32-5.35.31-2.48.83-4.78,1.52-6.83.53-1.59,1.17-3.01,1.89-4.24,1.69-2.9,3.83-4.68,6.16-4.83.11-.02.22-.02.32-.02,5.64,0,10.22,9.52,10.22,21.27h0Z"/>
            <g class="st49">
              <path class="st39" d="M468.77,341.8c-1.08,1.01-2.26,1.64-3.5,1.8l-10.57-26.56c.31-2.48.83-4.78,1.52-6.83l12.55,31.59h0Z"/>
              <path class="st39" d="M474.56,327.04c-.49,4.66-1.72,8.74-3.44,11.69l-13.02-32.76c1.69-2.9,3.83-4.68,6.16-4.83l10.29,25.9h0Z"/>
            </g>
          </g>
          <g>
            <path class="st44" d="M454.51,381.54c-.15-.25-2.39-1.52-1.5-3.99.9-2.47,14.4-11.25,27.52-1.42,3.36,2.62,0,5.41,0,5.41h-26.03.01Z"/>
            <g>
              <path class="st33" d="M441.04,382.36c-2.14-.12-3.09-2.45-3.32-3.8-.14-.64-3.65-16.68-3.85-17.63-.09-.46.02-.9.31-1.24.64-.73,1.96-.72,2.5-.68h49.74c.56-.04,1.83-.04,2.46.68.3.34.41.78.31,1.24-.2.95-3.71,16.99-3.86,17.68-.22,1.32-1.17,3.65-3.26,3.76h-41.03,0ZM435.75,360.88c.55,2.55,3.75,17.16,3.78,17.32.11.61.61,2.26,1.56,2.31h40.93c.9-.05,1.4-1.7,1.51-2.28.04-.19,3.24-14.81,3.79-17.36-.22-.04-.54-.05-.8-.04h-49.91c-.31-.02-.64,0-.86.04h0Z"/>
              <g>
                <rect class="st33" x="436.58" y="368.54" width="49.91" height=".92"/>
                <rect class="st33" x="437.59" y="373.2" width="48.25" height=".92"/>
                <g>
                  <rect class="st33" x="461.26" y="359.57" width=".92" height="21.87"/>
                  <rect class="st33" x="454.73" y="359.88" width=".92" height="21.62" transform="translate(-34.62 47.13) rotate(-5.71)"/>
                  <rect class="st33" x="448.53" y="359.74" width=".92" height="21.83" transform="translate(-56.34 81.48) rotate(-9.76)"/>
                  <rect class="st33" x="442.44" y="359.67" width=".92" height="22.07" transform="translate(-71.45 107.96) rotate(-12.87)"/>
                </g>
                <g>
                  <rect class="st33" x="457.47" y="370.26" width="21.62" height=".92" transform="translate(52.66 799.64) rotate(-84.27)"/>
                  <rect class="st33" x="463.57" y="370.25" width="21.83" height=".92" transform="translate(28.57 775.33) rotate(-80.22)"/>
                  <rect class="st33" x="469.49" y="370.2" width="22.07" height=".92" transform="translate(12.14 756.55) rotate(-77.13)"/>
                </g>
              </g>
            </g>
          </g>
          <g>
            <path class="st57" d="M548.69,360.63l-.11,7.63s-1.29,3.46-5.92,2.29c-1.26-.77.69-3.39.69-3.39l-.32-1.37-1.26-5.39-3.62.04-1.98-6.04s6.82-1.42,7.2-1.42c.29,0,1.86-.6,3.45-.65.48-.02.96,0,1.4.13,1.9.57.46,8.18.46,8.18h0Z"/>
            <path class="st8" d="M548.69,360.63l-.11,7.63s-1.29,3.46-5.92,2.29c-1.26-.77.69-3.39.69-3.39l-.32-1.37c.19-.95.82-2.71,2.92-3.94.37-3.38,1.09-7.49.88-9.52.48-.02.96,0,1.4.13,1.9.57.46,8.18.46,8.18h0Z"/>
            <path class="st57" d="M539.51,353.65l.87,4.76s-18.09,7.1-31.3,11.15c-7.55,2.27-10.12-4.73-10.12-4.73l40.55-11.19h0Z"/>
            <path class="st50" d="M538.01,352.61l2.54,11.03s-19.97,4.14-31.47,5.93c-7.55,2.27-10.12-4.73-10.12-4.73l39.05-12.23h0Z"/>
            <path class="st10" d="M538.22,353.51l-.21-.9-24.03,8.94c11.25-.86,13.95-4.28,24.24-8.04h0Z"/>
            <path class="st50" d="M530.37,338.38l-22.12,11.45s-12.88,4.92-9.29,15.02c2.1,2.67,29.7-8.32,42.29-12.31,10.94-1.58,13.7-7.95,13.7-7.95l-24.59-6.21h.01Z"/>
            <g class="st4">
              <path class="st50" d="M546.36,347.81l-9.15-5-6.84-4.44-8.91,4.61c7.49,5.3,17.38,6.44,24.9,4.82h0Z"/>
            </g>
            <g>
              <path class="st57" d="M541.49,330.71l10.88-8.45s4.43,10.73,3.7,19.62c-4.37,6.8-6.24,8.44-16.46,7.83-9.95-3.85-30.24-17.46-30.24-17.46l-7.33-3.18s-.96-6.67,7.61-6.63c6.36.03,31.83,8.28,31.83,8.28h.01Z"/>
              <path class="st57" d="M517.17,331.17l-15.01-4.07s-1.08,5.23,5.02,17.04c6.1,11.81,12.88,22.98,12.88,22.98l5.17-2.06s-3.25-12.71-6.01-21.24c-3.05-7.85-5.14-9.62-5.14-9.62l3.09-3.04h0Z"/>
            </g>
            <path class="st57" d="M527.76,374.32c-3.55,1.92-13.32,7.03-16.79,5.15-4.26-2.31,2.9-6.12,2.9-6.12l5.8-3.49-1.56-3.14,1.28-1.4,5.07-2.35,3.83,9.02s.74,1.63-.54,2.32h0Z"/>
            <path class="st8" d="M514.53,373.28l-.66.07s-7.16,3.81-2.9,6.12c3.47,1.88,13.24-3.22,16.79-5.15.66-.36.78-.96.75-1.46-1.64,1.23-5.07,1.94-7.8,2.21-.85-.56-3.6-2.46-6.18-1.79h0Z"/>
            <path class="st33" d="M528.55,372.38s-2.73,3.6-8.9,3.44c0,0-2.82-3.51-4.49-3.67-3.55,1.85-7.8,4.41-5.69,7.39.7,1.19,2.94,1.55,9.17-.38s9.92-2.65,10.9-4.47c.32-.65-.99-2.32-.99-2.32h0Z"/>
            <path class="st57" d="M519.25,290.31s-4.32-4.87-5.17-.61,1.93,33.62,1.93,33.62c0,0-15.15,3.38-21.31,4.24-.24,2.95-.19,4.03.45,4s13.55,2.02,27.17-.39c10.61-1.93-3.06-40.87-3.06-40.87h-.01Z"/>
            <path class="st57" d="M506.72,285.37s3.79,3.75,5.51,6.01c-.19,6.93,1.29,19.78,16.07,38.06,0,0,7.39,5.28,16.69.76,5.39-3.71,7.4-6.63,7.4-6.63,0,0-6.3-16.24-13.13-27.9-5.52-9.58-10.39-12.54-13.24-14.01-2.85-1.46-10.27-1.57-10.27-1.57,0,0-3.8-2.82-5.02-6.2-3.03,7.05-4.02,11.48-4.02,11.48h0Z"/>
            <path class="st8" d="M509.9,275.91c-2.37,5.86-3.17,9.46-3.17,9.46,0,0,2.24,2.22,4.06,4.27,1.95-4.49,1.66-9.36-.89-13.73h0Z"/>
            <path class="st57" d="M511.88,273.9c.96,5.9.24,13.33-5.7,16.07-4.86,2.22-12.45-7.06-13.41-12.96s2.54-11.38,7.82-12.23c5.28-.86,10.34,3.23,11.29,9.13h0Z"/>
            <path class="st62" d="M496.31,264.66s-6.71,3.28-4.99,12.69c-.11,1.75,0,3.35,0,3.35,0,0,5.24.52,10.53-5.18.72.17.88,1.07,1.51,1.96.63.89,3.09.52,5.38,1.42,0,0,2.87.06,3.65-2.58-.48-6.37-5.68-14.72-9.98-12.32-2.34-1.8-6.11.66-6.11.66h0Z"/>
            <path class="st57" d="M500.38,276.96s.72-3.48,2.84-1.95c1.31.94,1.86,4.68-.41,5.7-1.89-.64-2.43-3.74-2.43-3.74h0Z"/>
            <path class="st50" d="M552.37,322.27l-10.28,6.94s-26.06-6.74-32.43-6.77c-8.57-.04-8.32,7.04-8.32,7.04.17,2.49.99,7.88,4.95,15.55,6.1,11.81,10.54,23.52,10.54,23.52,0,0,4.15-.94,6.08-1.72,2.32-.94,3.25-1.71,3.25-1.71,0,0-3.32-11.88-6.08-20.41-1.44-3.7-.69-2.65-1.58-4.1,6.8,4.33,13.51,6.9,19.93,9.39,9.95,3.85,19.06-5.27,18.5-11.55.73-8.88-4.57-16.16-4.57-16.16v-.02Z"/>
            <path class="st10" d="M543,330.81c3.99-1.14,7.66-3.97,9.15-7.86l-10.07,6.26s-8.2-1.95-16.21-3.77c5.85,5.88,11.3,7.03,17.12,5.36h.01Z"/>
            <path class="st55" d="M539.26,295.67c-5.52-9.58-10.39-12.54-13.24-14.01-2-1.03-6.26-1.39-8.62-1.51-1.41,5.56-2.95,10.47-5.18,13.22.18,7.27-1.35,16,12.12,32.66,0,0,11.12,5.51,18.82,2.83,6.34-2.45,9.32-6.26,9.32-6.26,0,0-6.39-15.27-13.22-26.94h0Z"/>
            <path class="st11" d="M530.28,305.2c.46-.19.94-.4,1.44-.61-1.48-9.68-4.18-18.34-8.55-19.46-.55-.45-1.16-.75-1.82-.74-2.95.03-6.47,1.08-4.1,12.57.26,1.73.59,3.21.95,4.49,1.9,8.75,3.27,13.83,3.27,13.83,0,0-15.77,14.8-19.56,19.25l2.26,3.31s14.15-7.24,26.3-18.04c0,0,1.22-.28.71-7.63-.16-2.27-.49-4.65-.91-6.98h0Z"/>
            <path class="st57" d="M529.89,311.53c-.62-9.04-2.71-19.19-3.57-21.23-.03-.08-2.01-5.94-4.97-5.92-2.95.03-6.47,1.08-4.1,12.57,2.38,11.49,4.23,18.32,4.23,18.32,0,0-15.77,14.8-19.56,19.25l2.26,3.31s12.85-7.88,25-18.68c0,0,1.22-.28.71-7.63h0Z"/>
            <path class="st55" d="M520.89,284.12s-6.52.43-4.79,10.68c1.23,8.21,1.82,9.71,1.82,9.71,0,0,5.84.06,12.12-2.64-1.49-9.81-4.35-18.46-9.14-17.74h-.01Z"/>
            <path class="st50" d="M541.33,354.08"/>
            <path class="st33" d="M546.85,352.15s2.12-.35,2.47.87-.41,5.24-.52,7.68c.17,3.83,1.33,7.82-.93,9.15-2.44,1.28-5.05,1.33-5.69.75s.93-3.48.93-3.48l-.58-1.68s.75-2.67,4.53-2.67c-.77-2.81-.2-10.62-.2-10.62h0Z"/>
            <path class="st57" d="M501.93,334.53s-3.36,1.63-5.32,2.89c-1.96,1.27-2.89,2.99-2.68,4.72.66.77,2.8,2.94,6.73,1.16,1.27-.5,3.52-5.46,3.52-5.46l-2.26-3.31h.01Z"/>
          </g>
        </g>
      </g>
      <g>
        <g>
          <path class="st59" d="M141.51,373.56l1.26,1.08s5.68,1.27,8.58,1.59c.71.08,1.35.49,1.65,1.13.16.35.1.5.1.5,0,0-10.39,1.82-14.13,1.15-2.17-2.12-1.24-4.05-2.78-5.86,2.04-1.2,5.33.42,5.33.42h0Z"/>
          <path class="st30" d="M143.2,376.89l1.55.58s5.77-.76,8.6-1.46c.69-.17,1.44,0,1.94.49.27.27.26.43.26.43,0,0-9.13,5.28-12.87,5.94-2.77-1.24-2.55-3.38-4.63-4.55,1.5-1.83,5.15-1.44,5.15-1.44h0Z"/>
          <g>
            <rect class="st27" x="72.03" y="347.02" width="7.35" height="29.69"/>
            <rect class="st66" x="72.03" y="347.02" width="7.35" height="29.69"/>
            <path class="st27" d="M76.79,347.02v25.93c0,1.49-1.21,2.7-2.7,2.7h-2.06v-28.63s4.76,0,4.76,0Z"/>
            <g>
              <path class="st17" d="M47.5,319.63c-.45,12.58.54,27.16,12.86,34,11.5,6.38,27.75,4.09,39.51-.11,3.72-1.33,8.63-3.46,10.63-7.2,3.2-5.99-3.36-12.05-8.27-14.25-4.72-2.11-9.92-3.17-14.32-5.88-11.33-6.98-13.5-20.55-17.99-31.86-1.88-4.74-7.43-18.34-14.56-14.27-3.57,2.03-3.71,6.37-4.26,9.97-1.25,8.18-2.93,16.4-3.38,24.68-.09,1.58-.17,3.23-.23,4.93h.01Z"/>
              <path class="st1" d="M107.05,348.06c-12.33,6.16-32.31,4.08-40.84-7.55-10.02-13.67-17.24-54.83-10.66-60.56-.06.03-.12.06-.19.09-3.57,2.03-3.71,6.37-4.26,9.97-1.25,8.18-2.93,16.4-3.38,24.68-.09,1.58-.17,3.23-.23,4.93-.45,12.59.54,27.16,12.86,34,11.5,6.38,27.75,4.09,39.51-.11,3.72-1.33,8.63-3.46,10.63-7.2.63-1.18.88-2.36.84-3.52-.52,2.45-2.04,4.14-4.29,5.27h.01Z"/>
            </g>
            <rect class="st30" x="65.53" y="376.7" width="22.69" height="2.69"/>
          </g>
          <g>
            <path class="st41" d="M86.05,325.03s-21.49-2.47-4.45,12.72c16.54,7,36.88,10.49,36.88,10.49,0,0,3.79,9.9,16.25,26.19,4.03,0,8.36-1.06,8.36-1.06,0,0-10.74-17.83-15.22-31.41-.56-1.69-1.8-3.08-3.43-3.79-27.89-11.98-31.18-8.21-38.38-13.15h-.01Z"/>
            <path class="st53" d="M91.95,329.27l23.53,24.48s14.74,15.1,27.75,22.74c-1.56,4.1-6.07,4.21-6.07,4.21,0,0-26.37-12.26-31.55-22.53-18.38-10.32-31.2-13.38-27.27-28.9,9.9-3.82,13.62,0,13.62,0h0Z"/>
            <path class="st28" d="M94.31,325.94s-6.88,10.86-16.91,10.16c-.75-4.24-17.51-13.58-18-37.42-.05-2.64,1.34-5.06,3.93-5.57,5.24-1.04,14.14-2.76,17.74-.35,4.52,19.37,13.24,33.19,13.24,33.19h0Z"/>
            <path class="st24" d="M72.59,307.12s6.16-3.28,11.47-2.98c4.79,5.04-4.21,8.33-9.9,7.68-2.4-3.64-3.17-1.87-1.57-4.7h0Z"/>
            <path class="st40" d="M85.62,305.38c-1.06-.28-2.09-.66-3.07-1.14-.55-.27-1.2-.57-1.74-.28-.21.11-.37.3-.51.49-.62.85-1.03,1.86-1.15,2.91-.08.63-.01,1.37.5,1.74.48.35,1.2.26,1.64.66.36.32.52.94,1,.99.27.03.52-.16.68-.38.15-.23.23-.49.34-.74.42-.92,1.38-1.56,2.39-1.6.13,0,.28,0,.39-.07.14-.08.21-.23.25-.38.17-.58,0-1.24-.4-1.67"/>
            <path class="st40" d="M70.94,310.24s.64-2.44,1.66-2.9c1.02-.46,2.22-.48,2.22-.48,0,0,5.73,3.24,3.97,5.5-3.07-.15-3.81,0-3.81,0l-4.03-2.13h-.01Z"/>
            <path class="st35" d="M79.9,292.17c5.33.86,15.68,11.08,18.79,19.14-1.27,3.97-15.27-1.97-15.27-1.97,0,0-.85-3.68,1.27-4.38,1.97-.21,4.49,1.1,4.49,1.1,0,0-3.23-1.61-5.88-4.88-.25-1.05-1.81-7.57-3.4-9.01h0Z"/>
            <path class="st35" d="M60.06,295.39c-3.57,4.97-4.62,13.11-1.51,24.42,11.45,1.11,17.38-7.12,17.38-7.12,0,0-2.67-4.15-4.79-3.06-2.97,1.93-6.87,3.06-6.87,3.06,0,0-.86-21.95-4.21-17.29h0Z"/>
            <path class="st40" d="M73.64,293.26s-2.76-4.33-2.33-7.61c-3.6-.95-6.57,0-6.57,0,0,0,.12,4.5.9,7.7,9.23,5.22,8.01-.08,8.01-.08h-.01Z"/>
            <path class="st46" d="M59.89,280.09c0,4.83,2.97,10.26,12.27,10.26,4.48,0,4.35-6.94,4.35-11.77s-3.63-8.74-8.11-8.74-8.5,5.43-8.5,10.26h-.01Z"/>
            <path class="st24" d="M77.41,270.41c.3,1.75-.51,3.66-2.32,4.34-1.28.49-2.8.31-4.23.29-1.44-.02-3.03.21-3.79,1.21-.6.79-.51,1.83-.41,2.8.1.93.2,1.85.3,2.78-.77-.67-1.75-1.17-2.79-1.4-.34-.08-.73-.11-.98.07-.19.14-.25.36-.29.58-.25,1.45.35,2.74,1,3.98.33.63.58,1.27.74,1.97.05.23.11,1.86.22,1.92-1.7-1.05-3.4-2.1-4.9-3.42-1.49-1.32-2.78-2.93-3.45-4.81-.8-2.27-1.11-5.68-.17-7.98.9-2.22,4.42-4.26,6.54-5.07,1.61-.62,3.36-.85,4.96-1.5,1.72-.69,3.24-1.87,4.35-3.35.1-.13.21-.27.37-.27.14,0,.25.11.35.22,1.9,2.15,4,4.72,4.5,7.64Z"/>
          </g>
          <g>
            <path class="st31" d="M123.44,260.91l69.42,7.53c.91.1,1.61,1.03,1.61,2.15v42.87c0,1.16-.75,2.12-1.7,2.16l-69.42,2.83c-1,.04-1.82-.94-1.82-2.16v-53.23c0-1.27.89-2.26,1.92-2.15h-.01Z"/>
            <polygon class="st61" points="143.45 280.14 185.01 284.65 185.01 311.38 143.45 313.07 143.45 280.14"/>
            <path class="st34" d="M162.96,297.95l2.94,27.99h11.04c1.42,0,2.38-1.77,1.84-3.37l-8.19-24.07-7.63-.55h0Z"/>
            <path class="st34" d="M167.49,324.88h-9.24c-.29,0-.53.24-.53.53h0c0,.29.24.53.53.53h9.24c.29,0,.53-.24.53-.53h0c0-.29-.24-.53-.53-.53Z"/>
          </g>
          <rect class="st56" x="38.4" y="325.94" width="176.85" height="4.03"/>
          <rect class="st30" x="54.23" y="329.97" width="7.35" height="56.4"/>
          <rect class="st30" x="190.23" y="329.97" width="7.35" height="56.4"/>
        </g>
        <path class="st48" d="M77.54,307.06c-.58-1.15.68-2.36,1.83-2.95,4.29-2.23,9.79-2.97,13.83-.31,2.67,1.76,4.28,4.67,6.19,7.23,5.14,6.86,13.57,11.64,22.1,10.79,3.64-.36,7.33-1.84,9.57-4.73"/>
      </g>
    </g>
  </g>
</svg>