<?xml version="1.0" encoding="utf-8"?>
<!-- Generator: Adobe Illustrator 15.0.0, SVG Export Plug-In . SVG Version: 6.00 Build 0)  -->
<!DOCTYPE svg PUBLIC "-//W3C//DTD SVG 1.1//EN" "http://www.w3.org/Graphics/SVG/1.1/DTD/svg11.dtd">
<svg version="1.1" id="μ€δό_1" xmlns="http://www.w3.org/2000/svg" xmlns:xlink="http://www.w3.org/1999/xlink" x="0px"
	 y="0px" width="1086px" height="1300px" viewBox="0 0 1086 1300" enable-background="new 0 0 1086 1300" xml:space="preserve">
<g>
	<path fill="#3C638E" d="M705.177,649.529c-1.575-0.72-2.971-2.206-4.186-4.307c-0.73-6.706,0.332-10.366,0.438-16.321
		c0.028-2.042-0.494-3.736-1.529-5.147c-1.502-2.026-3.186-2.234-5.148-0.524c-3.032,2.656-6.886,4.546-14.43,5.28
		c-12.771,0.63-22.818-1.499-35.197-3.029c-15.425-1.891-27.83-0.422-40.566,9.69c9.873-20.042,36.438-40.16,59.561-41.015
		c13.502-0.512,27.635,4.92,32.523,18.512c-15.364-9.631-46.088-7.517-68.26,7.291c23.012-14.433,70.854-15.693,75.821,5.882
		c3.572-6.948,1.783-15.184-2.099-21.621l-4.383-7.891c-2.115-3.811-4.051-7.02-5.221-11.327
		c-1.801-6.689-1.547-14.372,1.152-23.207c1.728-6.858,3.59-13.488,2.071-21.559c7.009,15.812,6.604,31.159,3.095,43.01
		c-1.249,4.186-1.295,6.858-0.395,9.182c2.988,7.741,9.018,12.708,10.369,23.628c0.961-2.669,2.908-5.985,4.32-7.966
		c-3.303-4.169-4.844-8.731-4.682-13.111c0.692-19.624,21.947-24.993,37.971-26.51c9.99-0.945,19.531-1.575,26.328-10.697
		c-4.32,11.567-17.058,19.173-27.376,25.582c-7.263,4.515-14.418,8.911-20.826,14.987c-6.796,6.436-12.091,14.07-15.573,24.332
		C706.168,630.927,705.121,639.807,705.177,649.529"/>
	<g>
		<g>
			<path fill="#3C638E" d="M555.756,931.438c0,0-18.484-34.024-18.484-84.433s36.484-84.072,55.689-95.113
				c19.203-11.043,65.051-38.889,82.334-55.45c17.283-16.563,17.879-19.083,20.281-24.484s3.723-20.042,14.884-12.841
				s7.797,27.484,6.599,32.404c-1.197,4.922-8.219,28.744-35.223,50.168c0,0,30.784-5.221,71.29-25.024
				c40.507-19.803,68.411-44.106,82.093-66.43c13.683-22.323,15.299-32.644,16.501-36.965c1.201-4.321,3.24-21.485,3.24-25.685
				c0-4.2-1.796-12.243,3.483-12.603s7.561,1.319,8.879,5.042c1.32,3.721,6.001,23.164,5.402,42.007
				c-0.6,18.843-7.621,48.008-28.864,77.172s-61.753,66.85-116.239,97.575c-54.487,30.726-70.087,38.407-79.691,43.688
				C638.328,845.746,571.359,871.912,555.756,931.438z"/>
			<path fill="#3C638E" d="M788.592,693.621c0,0,39.066-32.404,51.128-60.309c0,0,0.839-10.682-1.201-20.043
				c-2.039-9.362-8.157-20.163-10.919-23.163c-2.764-3-4.802-2.52-6.377-2.205c-1.576,0.314-5.537,2.205-3.736,8.777
				c1.801,6.57,3.061,18.902,1.08,29.794c-1.98,10.891-4.529,19.804-8.97,29.765C805.154,666.197,795.193,686,788.592,693.621z"/>
			<path fill="#3C638E" d="M784.393,691.043c0,0,23.643-32.526,28.683-62.051c0,0-3.175-8.581-7.558-13.862
				c-4.383-5.282-5.041-5.881-8.222-5.941c-3.183-0.061-6.183,3.72-4.981,7.921c1.2,4.201,3.479,10.98,3.779,16.502
				c0.301,5.521,0.51,10.952-0.391,19.053C794.803,660.767,788.563,683.602,784.393,691.043z"/>
		</g>
		<linearGradient id="SVGID_1_" gradientUnits="userSpaceOnUse" x1="542.2446" y1="159" x2="542.2446" y2="934.7319">
			<stop  offset="0" style="stop-color:#96DBCF"/>
			<stop  offset="0.5" style="stop-color:#3A9FCF"/>
			<stop  offset="1" style="stop-color:#256BA8"/>
		</linearGradient>
		<path fill="url(#SVGID_1_)" d="M863.484,544.738c0,0,12.72-45.365,13.2-99.614c0.481-54.25-10.321-88.093-25.442-118.819
			c-15.123-30.726-50.411-62.651-88.097-72.012c-37.685-9.362-65.288-8.879-105.614,5.042s-97.215,63.249-135.741,152.183
			c0,0-89.654-66.971-183.628-39.246c-93.975,27.725-104.057,124.579-102.616,149.423c1.439,24.844,1.44,70.811,27.845,127.46
			c26.404,56.65,34.444,72.372,72.97,124.58c38.526,52.208,101.536,114.138,158.785,153.744c0,0-137.661-48.85-238.477-165.986
			C155.854,644.354,150.573,522.416,150.093,499.372c-0.481-23.044,3.719-66.251,19.563-100.456c0,0,21.423-41.946,46.087-62.83
			c24.664-20.883,49.568-34.986,73.333-43.627c23.763-8.641,57.607-14.88,85.453-14.641c27.845,0.239,69.13,5.761,111.378,31.685
			c0,0,25.44-48.729,60.248-81.134s69.37-48.967,89.055-56.408c19.685-7.441,71.771-24.483,128.661-16.083
			c56.889,8.401,101.777,35.044,127.221,63.37c25.443,28.325,39.606,67.212,42.486,101.297
			c2.881,34.084-1.438,65.049-13.921,103.936C907.172,463.366,896.366,493.85,863.484,544.738z"/>
	</g>
	<g>
		<g>
			<g transform="translate(68.766724, 171.850388)">
				<path fill="#2A3A49" d="M126.339,823.663c21.104,0,36.675,3.837,46.7,11.505c10.048,7.672,15.077,19.29,15.077,34.87
					c0,7.095-1.351,13.28-4.034,18.563c-2.657,5.257-6.187,9.738-10.586,13.429c-4.399,3.702-9.143,6.688-14.206,8.979
					l45.509,67.418H168.41l-36.847-59.396h-17.551v59.396H81.289V823.663H126.339z M123.957,850.565h-9.945v41.839h10.586
					c10.838,0,18.606-1.8,23.28-5.405c4.698-3.634,7.057-8.996,7.057-16.084c0-7.359-2.544-12.582-7.606-15.675
					C142.287,852.12,134.497,850.565,123.957,850.565z"/>
			</g>
		</g>
		<g>
			<g transform="translate(117.529738, 171.850388)">
				<path fill="#2A3A49" d="M221.702,857.941c16.313,0,29.239,4.663,38.771,13.978c9.533,9.327,14.3,22.574,14.3,39.732v15.632
					h-76.26c0.276,9.106,2.979,16.256,8.111,21.448c5.132,5.198,12.248,7.787,21.357,7.787c7.517,0,14.401-0.744,20.669-2.245
					c6.29-1.522,12.765-3.871,19.431-7.056v24.93c-5.936,2.876-12.076,4.994-18.423,6.37c-6.357,1.376-14.092,2.063-23.189,2.063
					c-11.86,0-22.342-2.2-31.439-6.599c-9.109-4.399-16.258-11.045-21.448-19.939c-5.203-8.885-7.792-20.186-7.792-33.909
					c0-13.714,2.339-25.207,7.015-34.465c4.696-9.257,11.238-16.188,19.613-20.808C200.816,860.258,210.577,857.941,221.702,857.941
					z M221.93,880.899c-6.359,0-11.572,2.043-15.627,6.1c-4.034,4.033-6.416,10.313-7.149,18.835h45.279
					c-0.126-7.082-2.039-13.017-5.729-17.783C235.038,883.284,229.447,880.899,221.93,880.899z"/>
			</g>
		</g>
		<g>
			<g transform="translate(161.1948, 171.850388)">
				<path fill="#2A3A49" d="M324.533,857.941c12.705,0,22.879,3.438,30.521,10.313c7.668,6.853,11.501,17.851,11.501,32.995v77.179
					h-32.26v-69.155c0-8.524-1.538-14.909-4.585-19.159c-3.025-4.274-7.857-6.416-14.483-6.416c-9.839,0-16.575,3.369-20.206,10.08
					c-3.61,6.729-5.411,16.389-5.411,28.969v55.682h-32.265V860.095h24.706l4.351,15.168h1.696c3.76-6.07,8.912-10.47,15.49-13.197
					C310.188,859.313,317.165,857.941,324.533,857.941z"/>
			</g>
		</g>
		<g>
			<g transform="translate(209.736157, 171.850388)">
				<path fill="#2A3A49" d="M383.444,813.716v73.692c0,4.467-0.183,8.915-0.551,13.339c-0.344,4.401-0.721,8.832-1.143,13.289h0.413
					c2.166-3.027,4.399-6.052,6.689-9.075c2.315-3.027,4.776-5.98,7.378-8.888l33.179-35.979h36.434l-47.063,51.375l49.862,66.957
					h-37.257l-34.057-47.895l-13.885,11.048v36.847h-32.266V813.716H383.444z"/>
			</g>
		</g>
		<g>
			<g transform="translate(255.543839, 171.850388)">
				<path fill="#2A3A49" d="M488.261,857.712c15.882,0,28.061,3.438,36.528,10.313c8.456,6.85,12.692,17.359,12.692,31.53v78.872
					h-22.547l-6.277-16.043h-0.873c-5.074,6.361-10.436,10.991-16.086,13.888c-5.623,2.864-13.334,4.308-23.14,4.308
					c-10.544,0-19.286-3.024-26.22-9.074c-6.942-6.071-10.402-15.544-10.402-28.412c0-12.561,4.4-21.794,13.199-27.729
					c8.824-5.923,22.047-9.256,39.646-9.992l20.624-0.639v-5.179c0-6.233-1.643-10.784-4.908-13.656
					c-3.238-2.9-7.742-4.355-13.517-4.355s-11.409,0.847-16.911,2.518c-5.5,1.65-10.99,3.702-16.453,6.145l-10.631-21.859
					c6.195-3.172,13.198-5.742,20.988-7.699C471.787,858.697,479.89,857.712,488.261,857.712z M505.405,923.614l-12.605,0.413
					c-10.391,0.275-17.623,2.154-21.68,5.637c-4.033,3.461-6.047,8.006-6.047,13.654c0,4.929,1.429,8.438,4.309,10.543
					c2.896,2.088,6.671,3.117,11.316,3.117c6.936,0,12.785-2.064,17.557-6.188c4.766-4.124,7.15-9.947,7.15-17.461V923.614z"/>
			</g>
		</g>
		<g>
			<g transform="translate(300.169391, 171.850388)">
				<path fill="#2A3A49" d="M634.563,860.095v118.332h-24.7l-4.353-15.171h-1.699c-3.757,6.083-8.932,10.496-15.535,13.248
					c-6.576,2.713-13.542,4.075-20.896,4.075c-12.718,0-22.906-3.415-30.568-10.262c-7.644-6.875-11.461-17.901-11.461-33.092
					v-77.131h32.268v69.157c0,8.524,1.514,14.927,4.537,19.204c3.044,4.247,7.891,6.367,14.526,6.367
					c9.831,0,16.561-3.359,20.169-10.081c3.594-6.718,5.404-16.374,5.404-28.965v-55.683H634.563z"/>
			</g>
		</g>
	</g>
</g>
</svg>
